PathFileType	4	(x/y/z)	S04_M20_T39.trc
DataRate	CameraRate	NumFrames	NumMarkers	Units	OrigDataRate	OrigDataStartFrame	OrigNumFrames
240	240	4	51	mm	240	325	519
Frame#	Time	Sternum			R.Acromium			L.Acromium			Top.Head			R.ASIS			L.ASIS			R.PSIS			L.PSIS			R.Great.Tro			L.Great.Tro			R.Iliac.Crest			L.Iliac.Crest			V.Sacral			R.Thigh.Upper.Post			R.Thigh.Lower.Ant			R.Thigh.Lower.Post			R.Thigh.Upper.Ant			R.Knee.Lat			R.Knee.Med			R.Shank.Upper.Post			R.Shank.Lower.Ant			R.Shank.Lower.Post			R.Shank.Upper.Ant			R.Ankle.Lat			R.Ankle.Med			R.Heel.Upper			R.Heel.Med			R.Heel.Lat			R.Toe.Lat			R.Toe.Med			R.Toe.Tip			L.Thigh.Upper.Post			L.Thigh.Lower.Ant			L.Thigh.Lower.Post			L.Thigh.Upper.Ant			L.Knee.Lat			L.Knee.Med			L.Shank.Upper.Post			L.Shank.Lower.Ant			L.Shank.Lower.Post			L.Shank.Upper.Ant			L.Ankle.Lat			L.Ankle.Med			L.Heel.Upper			L.Heel.Med			L.Heel.Lat			L.Toe.Lat			L.Toe.Med			L.Toe.Tip			Cervical.Spine			Back			
		X1	Y1	Z1	X2	Y2	Z2	X3	Y3	Z3	X4	Y4	Z4	X5	Y5	Z5	X6	Y6	Z6	X7	Y7	Z7	X8	Y8	Z8	X9	Y9	Z9	X10	Y10	Z10	X11	Y11	Z11	X12	Y12	Z12	X13	Y13	Z13	X14	Y14	Z14	X15	Y15	Z15	X16	Y16	Z16	X17	Y17	Z17	X18	Y18	Z18	X19	Y19	Z19	X20	Y20	Z20	X21	Y21	Z21	X22	Y22	Z22	X23	Y23	Z23	X24	Y24	Z24	X25	Y25	Z25	X26	Y26	Z26	X27	Y27	Z27	X28	Y28	Z28	X29	Y29	Z29	X30	Y30	Z30	X31	Y31	Z31	X32	Y32	Z32	X33	Y33	Z33	X34	Y34	Z34	X35	Y35	Z35	X36	Y36	Z36	X37	Y37	Z37	X38	Y38	Z38	X39	Y39	Z39	X40	Y40	Z40	X41	Y41	Z41	X42	Y42	Z42	X43	Y43	Z43	X44	Y44	Z44	X45	Y45	Z45	X46	Y46	Z46	X47	Y47	Z47	X48	Y48	Z48	X49	Y49	Z49	X50	Y50	Z50	X51	Y51	Z51	

325	1.35	965.05	1249.4	265.43	840	1481.9	436.69	839.97	1466.7	85.246	882.85	1807.6	251.38	914.15	968.77	411.07	950.95	980.32	157.81	719.07	1017.2	276.44	738.96	1017.1	197.25	805.51	900.53	456.47	846.83	901.56	73.666	828.53	1061.9	439.88	851.87	1065.6	94.944	706.6	975.96	235.17	732.17	656.2	432.44	782.48	557.11	398.35	708.29	569.6	417.05	820.55	659.18	423.66	707.25	498.09	406.98	685.48	503.69	270.23	568.96	301.72	388.27	615.1	210.89	341.24	550.3	236.23	366.94	630.08	277.54	370.7	532.89	124.48	341.49	550.31	136.74	251.2	459.9	104.57	286.37	461.56	70.531	258.5	459.98	75.172	323.5	628.99	43.493	366.86	658.18	36.933	246.52	725.71	44.402	290.77	918.04	663.32	84.509	1034.1	611.35	90.791	965.64	587.5	99.774	983.24	684.25	72.493	1043.9	525.1	105.45	1053.3	513.03	235.26	1047.6	326.97	107.2	1149.7	283.11	103.46	1089.4	261.27	112.94	1108.6	347.8	97.005	1213.2	138.15	118.06	1210.8	150.58	211.56	1164	68.139	166.21	1183.1	51.732	201.67	1183.7	46.435	139.72	1341.5	138.14	100.32	1361.1	167.32	213.78	1400.6	207.03	165.53	793.75	1528.4	265.09	708.36	1271.7	242.83
326	1.3542	970.69	1248.5	265.08	845.57	1481.2	436.07	845.72	1465.7	84.636	888.5	1806.8	250.53	919.4	967.95	410.97	956.79	979.33	157.76	724.7	1016.5	275.81	744.75	1016.3	196.65	810.46	899.97	456.13	852.75	900.7	73.378	833.8	1061.2	439.53	857.74	1064.6	94.57	712.28	975.24	234.52	736.1	656.06	432.24	786.03	556.74	398.26	711.86	569.57	416.83	824.5	658.65	423.55	710.42	498.02	406.84	688.96	503.67	270.02	570.9	302.49	388.15	616.42	211.36	341.17	551.75	237.13	366.9	631.84	277.93	370.63	533.67	125.44	341.42	551.2	137.58	251.16	460.58	106.06	286.3	462.02	72.015	258.41	460.47	76.618	323.4	629.17	43.617	366.85	658.34	36.988	246.53	725.87	44.224	290.78	923.33	662.27	84.279	1039.2	610.13	90.623	970.69	586.41	99.546	988.49	683.1	72.256	1048.9	524	105.19	1058.3	511.91	235.09	1054.6	325.77	107.23	1157.2	283.05	103.3	1097.2	260.53	112.95	1115.3	347.28	96.836	1222.3	138.77	117.98	1220.3	151.34	211.47	1174.3	68.098	166.52	1193.8	51.989	201.95	1194	46.625	139.94	1350.6	140.35	99.616	1370.3	170.1	212.92	1409.1	210.26	164.38	799.44	1527.6	264.4	714	1270.8	242.28
327	1.3583	976.36	1247.6	264.71	851.16	1480.5	435.45	851.48	1464.7	84.016	894.17	1805.9	249.65	924.68	967.13	410.85	962.65	978.37	157.7	730.36	1015.8	275.17	750.56	1015.6	196.05	815.46	899.41	455.77	858.71	899.85	73.073	839.12	1060.4	439.16	863.62	1063.7	94.184	718	974.53	233.88	740.12	655.94	432.04	789.66	556.37	398.17	715.53	569.54	416.61	828.53	658.12	423.44	713.68	497.96	406.7	692.55	503.63	269.83	572.91	303.29	388.04	617.79	211.84	341.11	553.26	238.05	366.86	633.68	278.33	370.56	534.48	126.44	341.37	552.12	138.46	251.14	461.29	107.62	286.25	462.52	73.564	258.34	460.99	78.12	323.32	629.36	43.747	366.84	658.5	37.047	246.54	726.03	44.051	290.79	928.73	661.25	84.05	1044.4	608.98	90.471	975.86	585.37	99.319	993.83	682	72.028	1054	522.94	104.95	1063.3	510.83	234.92	1061.5	324.63	107.26	1164.5	282.92	103.15	1104.7	259.81	112.95	1122	346.74	96.673	1231.1	139.29	117.91	1229.3	151.98	211.4	1184	67.998	166.82	1204	52.169	202.22	1203.9	46.745	140.14	1359.3	142.32	98.941	1379.2	172.59	212.09	1417.2	213.17	163.27	805.15	1526.8	263.71	719.66	1270	241.72
328	1.3625	982.06	1246.7	264.32	856.79	1479.8	434.81	857.27	1463.7	83.386	899.85	1805.1	248.77	930.01	966.33	410.71	968.54	977.42	157.62	736.05	1015.1	274.53	756.4	1014.8	195.44	820.51	898.86	455.4	864.7	899.03	72.749	844.49	1059.7	438.78	869.51	1062.7	93.79	723.75	973.82	233.23	744.21	655.81	431.83	793.38	556.01	398.09	719.28	569.51	416.39	832.65	657.6	423.34	717.04	497.9	406.56	696.24	503.58	269.63	575.01	304.12	387.94	619.22	212.35	341.05	554.84	239.01	366.83	635.59	278.75	370.49	535.34	127.48	341.34	553.08	139.37	251.13	462.04	109.23	286.22	463.04	75.18	258.3	461.54	79.678	323.25	629.57	43.885	366.84	658.66	37.109	246.55	726.2	43.884	290.79	934.24	660.27	83.824	1049.7	607.9	90.336	981.14	584.37	99.094	999.27	680.96	71.809	1059.3	521.93	104.72	1068.5	509.81	234.75	1068.2	323.54	107.28	1171.6	282.72	103.02	1112	259.1	112.96	1128.5	346.17	96.518	1239.4	139.66	117.84	1237.9	152.49	211.34	1193.4	67.823	167.1	1213.7	52.254	202.47	1213.2	46.778	140.32	1367.6	144.02	98.297	1387.6	174.79	211.3	1425	215.73	162.22	810.88	1526	263.01	725.35	1269.1	241.16
